Land_normalized_Motion_pl09
version=1
nRows=14
nColumns=43
inDegrees=yes
endheader
time		pelvis_tilt		pelvis_list		pelvis_rotation		pelvis_tx		pelvis_ty		pelvis_tz		hip_flexion_r		hip_adduction_r		hip_rotation_r		knee_angle_r		ankle_angle_r		subtalar_angle_r		mtp_angle_r		hip_flexion_l		hip_adduction_l		hip_rotation_l		knee_angle_l		ankle_angle_l		subtalar_angle_l		mtp_angle_l		lumbar_extension		lumbar_bending		lumbar_rotation		neck_flexion		neck_lateral_bending		neck_rotation		arm_flex_r		arm_add_r		arm_rot_r		elbow_flex_r		pro_sup_r		wrist_flex_r		wrist_dev_r		hand_finger_flex_r		arm_flex_l		arm_add_l		arm_rot_l		elbow_flex_l		pro_sup_l		wrist_flex_l		wrist_dev_l		hand_finger_flex_l		
2.675000		1.177217		-2.640206		95.618827		-0.025889		0.941636		0.556146		33.450366		-7.120882		-13.465097		-31.351679		-22.619447		-1.568428		30.222473		34.363849		-4.806343		-9.387651		-31.373346		-18.977572		3.154681		25.944724		-23.489706		3.967975		-1.056809		-19.172532		1.398171		-4.988330		-62.284603		-14.819959		-34.258956		76.451795		113.236285		-6.763457		-12.335033		-25.443240		-78.535999		-19.608243		-44.342881		100.581580		122.091157		-21.181606		-13.186766		-9.300009		
2.678106		1.109184		-2.349846		95.564761		-0.025875		0.930074		0.551895		33.904741		-7.307675		-13.375697		-32.785279		-22.627740		-1.481780		30.315533		34.933320		-4.881421		-9.309622		-33.086235		-19.035832		3.492293		26.131555		-24.000286		3.958632		-1.011435		-19.010257		1.384702		-4.987822		-61.340748		-14.894905		-33.995585		75.963962		113.144596		-6.930327		-12.275819		-25.498976		-77.167059		-19.521753		-43.839596		100.279362		121.943017		-21.532242		-13.192244		-9.449407		
2.681212		1.091842		-2.209121		95.500469		-0.025583		0.917774		0.547961		34.677985		-7.449221		-13.197961		-34.427114		-22.681762		-1.275832		30.471888		35.814241		-5.050852		-9.238679		-34.990772		-19.107802		4.100819		26.465743		-24.417616		3.953223		-1.016892		-18.286482		1.304727		-5.020154		-60.377868		-14.923667		-33.715200		75.622275		112.957855		-7.375357		-12.387701		-25.652827		-75.950342		-19.381332		-43.321518		99.996193		121.674466		-22.369862		-13.340516		-9.770595		
2.684318		1.073996		-2.497919		95.302048		-0.025272		0.904786		0.543855		35.965793		-7.525251		-12.782885		-36.034773		-23.028003		-1.279496		30.891625		37.077135		-5.234552		-9.258935		-36.744828		-19.398026		4.645496		27.406604		-24.265829		3.881110		-0.887818		-18.061021		1.240150		-5.018919		-59.455459		-15.107028		-33.136113		75.014017		112.457301		-8.350335		-12.742219		-25.901909		-74.696584		-19.508620		-42.356063		99.393685		121.075181		-24.161804		-13.835598		-10.200613		
2.687424		1.008680		-2.412804		95.177048		-0.024952		0.892217		0.539961		36.854321		-7.652710		-12.471608		-37.623435		-23.300333		-1.266730		31.197380		37.950813		-5.346886		-9.184801		-38.401679		-19.835793		4.954705		28.020582		-24.621195		3.801525		-0.871742		-17.388005		1.155706		-5.024418		-58.438231		-15.235204		-32.770293		74.704181		112.193638		-8.806065		-12.867797		-25.967050		-73.431835		-19.491770		-41.798706		99.108570		120.752402		-24.980459		-13.991141		-10.277156		
2.690530		0.874896		-2.205445		95.045103		-0.024976		0.880004		0.535752		37.522703		-7.832871		-12.164938		-39.087994		-23.233481		-1.305391		31.748026		38.567726		-5.357335		-9.138185		-39.879655		-19.960585		4.993067		28.936585		-25.032371		3.691782		-0.842698		-17.244094		1.147733		-4.980926		-57.360771		-15.473211		-32.402230		74.299811		112.003837		-9.092592		-12.898156		-25.858061		-72.047893		-19.547974		-41.223261		98.849259		120.549524		-25.452965		-14.052821		-9.950234		
2.693636		0.630225		-2.506125		94.717324		-0.024543		0.866477		0.531984		39.016801		-7.990359		-11.386715		-40.987856		-22.428739		-1.327661		33.618136		39.786867		-5.329423		-9.130445		-41.499247		-19.646620		5.046242		32.091050		-24.988052		3.318742		-0.759345		-16.424538		1.098093		-4.926741		-56.301673		-15.732664		-31.723871		73.860668		111.405972		-10.218154		-13.324584		-25.496528		-70.794221		-19.658720		-40.463361		98.449317		119.982122		-27.277649		-14.503626		-8.749924		
2.696742		0.524470		-2.222084		94.606280		-0.024404		0.854021		0.527998		39.660607		-8.113857		-11.124678		-42.860830		-20.355921		-1.213461		33.899479		40.397373		-5.327828		-8.822162		-43.263552		-17.939141		5.519111		32.483414		-25.563864		3.213155		-0.688798		-15.762889		1.126255		-4.959313		-55.171664		-15.881439		-31.447620		73.559645		111.534032		-10.390439		-13.407119		-25.538126		-69.393555		-19.784155		-40.043233		98.306591		120.128381		-27.509683		-14.645302		-8.765831		
2.699848		0.387018		-2.050765		94.444689		-0.024298		0.841339		0.524009		40.459804		-8.239893		-10.790993		-45.021922		-17.196925		-0.998095		34.183741		41.139104		-5.312841		-8.542544		-45.264139		-15.255497		6.096891		32.901038		-25.996240		3.060524		-0.625844		-15.188057		1.122084		-4.934416		-54.032963		-16.123710		-31.070966		73.240780		111.647212		-10.640890		-13.616270		-25.619633		-67.983066		-19.910507		-39.586970		98.139837		120.233462		-27.782257		-14.844503		-8.755989		
2.702955		0.224903		-2.073764		94.246816		-0.024035		0.828201		0.519897		41.497119		-8.420451		-10.431298		-47.608526		-12.565267		0.533665		34.206326		42.131867		-5.407527		-8.399024		-47.668167		-11.428994		7.865093		33.280480		-26.129294		2.821731		-0.590464		-15.037894		1.225908		-4.878147		-52.886766		-16.423638		-30.534611		72.803676		111.747949		-11.207080		-14.140265		-25.753760		-66.616524		-20.065246		-39.123381		97.886870		120.333304		-28.357187		-15.326768		-8.457724		
2.706061		0.112464		-2.029046		94.063779		-0.023738		0.815213		0.515927		42.456489		-8.543475		-10.271853		-50.489801		-7.258392		1.486500		30.819908		43.038433		-5.466025		-8.145064		-50.237979		-6.827331		8.730865		31.540685		-26.402530		2.644598		-0.535471		-14.500978		1.264207		-4.742888		-51.672634		-16.805715		-29.878732		72.367741		111.645024		-11.871651		-14.629691		-25.496883		-65.114526		-20.260209		-38.625101		97.574258		120.290565		-29.461236		-15.840371		-6.755754		
2.709167		0.095874		-1.877406		93.857844		-0.023395		0.802356		0.511992		43.282451		-8.532671		-10.202388		-53.499922		-1.843149		1.973379		26.647982		43.872181		-5.637726		-7.867495		-53.045547		-1.854582		9.488363		29.197791		-26.779703		2.561027		-0.421693		-14.074398		1.324091		-4.640412		-50.450582		-17.160609		-29.377666		72.081384		111.600415		-12.380065		-15.000102		-25.130012		-63.572044		-20.413711		-38.146179		97.348315		120.336424		-30.552807		-16.268366		-4.988245		
2.712273		0.201988		-1.734907		93.706672		-0.023076		0.789562		0.508025		44.082745		-8.486060		-10.413915		-56.585691		3.537110		2.433514		20.290179		44.720750		-5.908249		-7.638275		-55.961370		3.362569		10.102710		24.081546		-27.138153		2.633535		-0.292959		-13.603165		1.338508		-4.572554		-49.189202		-17.518838		-28.934248		71.763603		111.877383		-12.737001		-15.480269		-25.173028		-61.953055		-20.564950		-37.720848		97.064297		120.688607		-30.871135		-16.719633		-4.755189		
2.715379		0.284248		-1.519616		93.421031		-0.022568		0.777027		0.504220		44.883282		-8.343772		-10.513229		-59.558674		7.752567		2.018809		19.639140		45.440860		-6.236912		-7.592268		-58.772838		7.865687		10.110646		23.597676		-27.604604		2.613306		-0.036054		-13.166668		1.385124		-4.443615		-47.858752		-17.904255		-28.521926		71.548877		111.980925		-12.742684		-15.638681		-25.188874		-60.267973		-20.715546		-37.313575		96.914323		120.845843		-30.891441		-16.967748		-4.814238		
